<svg width="22" height="23" viewBox="0 0 22 23" fill="none" xmlns="http://www.w3.org/2000/svg">
<path d="M11 1C11.3315 1 11.6495 1.14034 11.8839 1.39015C12.1183 1.63995 12.25 1.97877 12.25 2.33205V10.3243H19.75C20.0815 10.3243 20.3995 10.4647 20.6339 10.7145C20.8683 10.9643 21 11.3031 21 11.6564C21 12.0097 20.8683 12.3485 20.6339 12.5983C20.3995 12.8481 20.0815 12.9884 19.75 12.9884H12.25V20.9807C12.25 21.334 12.1183 21.6728 11.8839 21.9226C11.6495 22.1724 11.3315 22.3127 11 22.3127C10.6685 22.3127 10.3505 22.1724 10.1161 21.9226C9.8817 21.6728 9.75 21.334 9.75 20.9807V12.9884H2.25C1.91848 12.9884 1.60054 12.8481 1.36612 12.5983C1.1317 12.3485 1 12.0097 1 11.6564C1 11.3031 1.1317 10.9643 1.36612 10.7145C1.60054 10.4647 1.91848 10.3243 2.25 10.3243H9.75V2.33205C9.75 1.97877 9.8817 1.63995 10.1161 1.39015C10.3505 1.14034 10.6685 1 11 1Z" fill="black" stroke="#323133"/>
</svg>
