<svg width="55" height="40" viewBox="0 0 55 40" fill="none" xmlns="http://www.w3.org/2000/svg">
<mask id="mask0_242:7" style="mask-type:alpha" maskUnits="userSpaceOnUse" x="0" y="0" width="55" height="40">
<rect width="55" height="39.8551" fill="#C4C4C4"/>
</mask>
<g mask="url(#mask0_242:7)">
<path fill-rule="evenodd" clip-rule="evenodd" d="M35.6745 28.0616C38.3097 28.0616 40.3902 25.75 40.3902 22.9298C40.3902 20.1097 38.3097 17.7981 35.6745 17.7981C33.0393 17.7981 30.9589 20.1097 30.9589 22.9298C30.9589 25.75 33.0855 28.0616 35.6745 28.0616ZM14.0842 22.9298C14.0842 20.1097 16.1647 17.7981 18.7999 17.7981C21.4351 17.7981 23.5618 20.1097 23.5155 22.9298C23.5155 25.75 21.4351 28.0616 18.7999 28.0616C16.2109 28.0616 14.0842 25.75 14.0842 22.9298ZM67.6208 71.4733V-11.4667C67.6208 -16.7371 63.3674 -20.9905 58.1432 -20.9905H-3.8075C-9.0317 -20.9905 -13.285 -16.7371 -13.285 -11.4667V51.0388C-13.285 56.3092 -9.0317 60.5626 -3.8075 60.5626H48.6195L46.1692 52.0097C53.3829 58.7161 55.6913 60.8782 58.0401 62.9955C60.0965 64.8491 62.1838 66.6685 67.6208 71.4733ZM47.7873 5.40793C47.7873 5.40793 54.4447 17.4744 54.4447 32.3611C54.4447 32.3611 50.515 39.0647 40.2977 39.3884C40.2977 39.3884 38.6334 37.4004 37.2464 35.6436C43.3028 33.933 45.6144 30.142 45.6144 30.142C43.7189 31.3902 41.9158 32.2687 40.2977 32.8697C30.3369 37.0533 19.2525 35.6215 11.449 31.2516C11.4263 31.2364 11.3435 31.1888 11.2214 31.1187C10.8385 30.8987 10.0692 30.4568 9.55352 30.0958C9.55352 30.0958 11.7726 33.7943 17.6441 35.5511C16.2571 37.3079 14.5466 39.3884 14.5466 39.3884C4.32931 39.0647 0.445835 32.3611 0.445835 32.3611C0.445835 17.4744 7.10323 5.40793 7.10323 5.40793C13.7606 0.414885 20.0944 0.553579 20.0944 0.553579L20.5567 1.10836C12.235 3.51242 8.39772 7.16474 8.39772 7.16474C8.39772 7.16474 9.41482 6.60996 11.1254 5.82401C21.7782 1.14466 34.6786 1.14573 45.6606 7.16474C45.6606 7.16474 42.0083 3.69735 34.1489 1.29329L34.7961 0.553579C34.7961 0.553579 41.1299 0.414885 47.7873 5.40793ZM63.7681 -5.57981H-5.57969V48.3574H63.7681V-5.57981Z" fill="white"/>
</g>
</svg>
