<svg width="50" height="42" viewBox="0 0 50 42" fill="none" xmlns="http://www.w3.org/2000/svg">
<path d="M15.7063 41.5449C34.575 41.5449 44.8969 25.5574 44.8969 11.7173C44.8969 11.2699 44.8969 10.8161 44.8781 10.3687C46.8877 8.88112 48.6221 7.03939 50 4.92982C48.1229 5.77617 46.1336 6.33398 44.0969 6.58514C46.2423 5.27379 47.8491 3.21049 48.6187 0.778744C46.6031 1.99986 44.3969 2.85707 42.0969 3.31285C40.5506 1.62885 38.5044 0.513247 36.2753 0.13885C34.0461 -0.235546 31.7585 0.152157 29.7667 1.2419C27.7749 2.33165 26.19 4.06263 25.2577 6.16671C24.3253 8.27079 24.0974 10.6305 24.6094 12.8805C20.5304 12.6713 16.5401 11.5877 12.897 9.70002C9.25397 7.8123 6.03964 5.1626 3.4625 1.92277C2.15419 4.23345 1.75492 6.96669 2.34577 9.56747C2.93662 12.1683 4.4733 14.4416 6.64375 15.9259C5.01731 15.8693 3.42663 15.4227 2 14.6221V14.7659C2.0028 17.1865 2.82284 19.5318 4.32148 21.4055C5.82013 23.2792 7.90546 24.5663 10.225 25.0493C9.34457 25.2973 8.43509 25.4209 7.52188 25.4168C6.87808 25.4188 6.23556 25.3578 5.60313 25.2346C6.25871 27.3183 7.53523 29.1402 9.2539 30.445C10.9726 31.7498 13.0473 32.4722 15.1875 32.511C11.5517 35.4311 7.06063 37.0149 2.4375 37.0072C1.62288 37.0107 0.808822 36.9627 0 36.8634C4.69223 39.9224 10.1416 41.5467 15.7063 41.5449Z" fill="white"/>
</svg>
